<svg xmlns="http://www.w3.org/2000/svg" width="177.428" height="94.172" viewBox="0 0 177.428 94.172">
  <g id="rc_logo" transform="translate(-335.364 -297.826)">
    <path id="Path_2035" data-name="Path 2035" d="M416.387,406.814c.075-.006.132-.01.165-.01.38,0,1.4.422.139,3.76s-4.795,15.127-5.357,18.906-.109,6.677,5.163,0c1.941-2.458,3.831-5,5.487-7.285,2.429-12.957,10.144-17.8,15.367-18.028,5.455-.239,7.707,1.857,8.185,3.842a3.258,3.258,0,0,1-1.941,3.853c-1.538.753-3.225.555-2.265-.426,2.121-2.166.8-3.529.039-3.7-1.331-.293-2.382.084-4.191,3.038s-2.705,6.872-3.84,14.172,7.886,4.137,12.393-.042c4.28-3.97,3.677-3.362,4.943-4.458.068-.059.135-.119.2-.177l.014-.013h0c6.479-5.463,14.674-2.336,23.587,1.067,8.574,3.272,17.835,6.807,26.591,2.86a.607.607,0,0,1,.5,1.106c-9.217,4.154-18.722.526-27.521-2.833-8.454-3.227-16.235-6.2-22.165-1.444-10.162,10.317-18.046,12.915-17.627,12.763,0,0-13.863,4.235-12.682-8.778a56.116,56.116,0,0,1-7.318,8.521c-5.289,4.7-12.534,2.747-13.707.85s-.764-6.756,1.632-13.638a52.989,52.989,0,0,1,6.338-11.287,27.373,27.373,0,0,1-5.933.2c-.441.495-.918,1.073-1.439,1.7-4.045,4.909-10.434,12.662-26.134,13.188-8.153.274-14.342-1.123-19.916-2.382-9.066-2.046-16.479-3.719-28.051,3.006-.365.212-.728.174-.811-.085s.145-.642.51-.854c12.193-7.086,19.833-5.362,29.179-3.253,5.516,1.245,11.639,2.627,19.653,2.358,14.834-.5,20.817-7.757,24.6-12.353.454-.551.88-1.068,1.291-1.539l-.047-.013c-3.146-.908-2.95-4.027-2.27-6.787a9.192,9.192,0,0,1,3.219-5.53c1.989-1.961,4.92-.982,6.193-1.139s3.383,1.171,2.013,5.818a8.842,8.842,0,0,1-3.4,5.032,63.7,63.7,0,0,0,9.205,0Zm-10.763-.593c2.64-2.01,4.056-4.766,2.986-7.309C407.726,396.813,402.829,404.14,405.624,406.222Z" transform="matrix(-1, 0.017, -0.017, -1, 845.342, 753.508)" fill="#a0c770" stroke="rgba(0,0,0,0)" stroke-width="1" fill-rule="evenodd"/>
    <path id="Subtraction_1" data-name="Subtraction 1" d="M86.282,93.172h0A.988.988,0,0,1,85.6,92.9a.873.873,0,0,1-.018-1.252.991.991,0,0,1,.7-.286.934.934,0,0,1,.953.9.868.868,0,0,1-.259.618A.989.989,0,0,1,86.282,93.172Zm5.529-4.336H91.8a.979.979,0,0,1-.675-.265.872.872,0,0,1-.278-.64.959.959,0,1,1,.963.9ZM7.941,86.6a3.6,3.6,0,0,1-.63-.07,2.46,2.46,0,0,1-.58-.191,3.1,3.1,0,0,1-.46-.254,3.137,3.137,0,0,1-.432-.356l-.012-.013a3.159,3.159,0,0,1-.361-.436,3.578,3.578,0,0,1-.267-.49l-.007-.026a2.835,2.835,0,0,1-.167-.556,2.8,2.8,0,0,1-.061-.589l-.012-6.712V76.7c-.036-19.374-.12-64.743.241-69.076H5.165a3.094,3.094,0,0,1,.061-.588A3.192,3.192,0,0,1,5.4,6.464l.01-.024a3.176,3.176,0,0,1,.277-.5,3.368,3.368,0,0,1,.36-.434l.023-.022a3.547,3.547,0,0,1,.436-.352A3.159,3.159,0,0,1,7,4.862l.029-.011A3.257,3.257,0,0,1,7.6,4.676a3.471,3.471,0,0,1,.588-.052H8.2c5.346.036,10.679.1,16.6.171l2.929.037c.727,0,1.481-.006,2.24-.006,5.062,0,10.088.085,14.948.167l1.6.025c3.392.054,6.9.11,10.353.13,1.174.005,12.217.322,19.85.685a46.63,46.63,0,0,1,6.77.666l.13,0,.021.029c.888.21,1.338.451,1.337.717,0,.559-.465.855-1.346.855.525,11.418.963,23.773,1.338,37.769.333,12.353.581,24.513.847,37.989a1.6,1.6,0,0,1-.029.36,2.345,2.345,0,0,1-.154.463l-.056.106a1.381,1.381,0,0,1-.414.517l-.035.023a1.209,1.209,0,0,1-.55.321l-.264.079a1.494,1.494,0,0,1-.372.041l-3.751.066V84.219c.753,0,1.433-.009,1.97-.014l1.134-.029.235-.307.378-.015c-.045-3.993-.179-8.1-.309-12.073l-.01-.309-.014-.409c-.1-3.1-.208-6.3-.266-9.483-.068-3.342-.224-6.774-.375-10.093l-.011-.244L82.9,50.9c-.158-3.516-.322-7.149-.381-10.772l-.074-4.68c-.1-5.751-.2-11.7-.18-17.326-.007-2.833-.1-5.742-.193-8.555l-.057-1.618.35-.022.009-.206a9.711,9.711,0,0,1-2.48.45h-.012a6.93,6.93,0,0,1-.873-.048,1.33,1.33,0,0,1-.8-.334c-1.038-.169-4.106-.306-6.5-.391-3.243-.118-7.519-.22-13.071-.311l.536.143c-1.235.013-2.49.031-3.7.049-2.24.033-4.554.066-6.818.066h-.519c-.385.012-.655.014-.815.014-.136,0-.2,0-.2,0V7.194a10.861,10.861,0,0,1-2.263.184c-.935,0-2.034-.059-3.267-.174l-1.829-.013L36.546,7.1c-.537.5-2.822.577-4.136.577-.352,0-.635-.005-.771-.008a4.5,4.5,0,0,1-.518-.044l-.061-.007A3.292,3.292,0,0,1,30,7.121l-1.315-.063a5.134,5.134,0,0,1-2.492.582h-.025l-.137.012a3.422,3.422,0,0,1-.658.053,15.6,15.6,0,0,1-2.318-.245l-.031-.005L23,7.449A113.856,113.856,0,0,0,11.46,6.93L8.065,6.875l0,.012-.011,0H8.046a.017.017,0,0,1-.014,0,.014.014,0,0,1,0-.012l-.236.117h0a.021.021,0,0,1-.022-.016c0-.01-.007-.017-.012-.017s-.012.006-.022.019L7.566,7.2c0,.006-.01.01-.014.01s-.015-.014-.018-.028l-.111.3-.018.16c-.031,2.589-.085,5.133-.148,7.952l-.018.9c-.086,4.18-.174,8.5-.156,12.742.166,12.812.008,25.856-.145,38.47l0,.313-.091,8.838L6.8,83.569l.011.1a1.379,1.379,0,0,1,0,.169.271.271,0,0,0,0,.093l.155.265a.221.221,0,0,1,.023.085c0,.024,0,.041.025.055l.24.188a.219.219,0,0,1,.043.065c.011.023.019.04.046.047a2.449,2.449,0,0,1,.33.1l.037.013.235.027h.414c.606,0,1.531,0,2.75-.007v1.817L8.648,86.6,8,86.6ZM92.749,83.26h0a.422.422,0,1,1,0-.844.462.462,0,0,1,.328.135.4.4,0,0,1,.118.289A.433.433,0,0,1,92.749,83.26Zm-4.4-2.8a.45.45,0,0,1-.323-.132.4.4,0,0,1-.119-.288.389.389,0,0,1,.113-.282.471.471,0,0,1,.658,0,.406.406,0,0,1,0,.571A.466.466,0,0,1,88.35,80.458Zm3.268-6.523a.992.992,0,0,1-.7-.289.862.862,0,0,1-.255-.614.929.929,0,0,1,.952-.9h.01a.9.9,0,1,1-.009,1.8Zm-2.84-13.08h0a.423.423,0,1,1,.449-.419A.437.437,0,0,1,88.778,60.856ZM2.549,20.144a.993.993,0,0,1-.622-.225.983.983,0,0,1-.364-.657.864.864,0,0,1,.186-.643A.885.885,0,0,1,2.44,18.3a.987.987,0,0,1,.619.223.931.931,0,0,1,.178,1.3A.872.872,0,0,1,2.549,20.144ZM.994,13.3a1,1,0,0,1-.626-.224.988.988,0,0,1-.362-.658.869.869,0,0,1,.187-.644.881.881,0,0,1,.689-.319.991.991,0,0,1,.619.221.938.938,0,0,1,.183,1.306A.882.882,0,0,1,.994,13.3ZM8.621,8.853a.467.467,0,0,1-.286-.1.44.44,0,0,1-.088-.612.414.414,0,0,1,.323-.149.47.47,0,0,1,.462.413.4.4,0,0,1-.089.3A.415.415,0,0,1,8.621,8.853Zm-5.179-.6a.456.456,0,0,1-.285-.1.442.442,0,0,1-.088-.613.411.411,0,0,1,.321-.148.478.478,0,0,1,.293.1.461.461,0,0,1,.167.3.4.4,0,0,1-.084.313A.415.415,0,0,1,3.443,8.253ZM1.062,4.331a.471.471,0,0,1-.292-.1A.461.461,0,0,1,.6,3.92a.406.406,0,0,1,.407-.452.462.462,0,0,1,.289.1.435.435,0,0,1,.087.612A.409.409,0,0,1,1.062,4.331Zm82.892-.881a.988.988,0,0,1-.7-.286.866.866,0,0,1,0-1.232.969.969,0,0,1,.693-.282h.012a.93.93,0,0,1,.954.9A.938.938,0,0,1,83.954,3.451ZM80.96,2.377a.461.461,0,0,1-.326-.134.4.4,0,0,1-.12-.29.437.437,0,0,1,.449-.419.462.462,0,0,1,.326.134.405.405,0,0,1,.121.289A.438.438,0,0,1,80.96,2.377ZM10.531,1.846a1,1,0,0,1-.62-.221A.976.976,0,0,1,9.546.966.871.871,0,0,1,10.42,0a1,1,0,0,1,.624.225.981.981,0,0,1,.364.655.865.865,0,0,1-.186.644A.883.883,0,0,1,10.531,1.846Z" transform="translate(371.996 298.326)" fill="#72a82f" stroke="rgba(0,0,0,0)" stroke-width="1"/>
  </g>
</svg>
